<svg xmlns="http://www.w3.org/2000/svg" viewBox="0 0 479.936 479.936"><path fill="#e8f3ff" d="M466.648,225.778c7.06,8.09,7.06,20.29,0,28.38c-10.59,12.14-16.68,27.86-16.68,44.46v99.35	c0,20.99-17.01,38-38,38h-344c-20.99,0-38-17.01-38-38v-99.35c0-16.6-6.09-32.32-16.68-44.46c-7.06-8.09-7.06-20.29,0-28.38	c10.59-12.14,16.68-27.86,16.68-44.46v-99.35c0-20.99,17.01-38,38-38h344c20.99,0,38,17.01,38,38v99.35	C449.968,197.918,456.058,213.638,466.648,225.778z"></path><circle cx="360.968" cy="353.968" r="40" fill="#a2d0ff"></circle><path fill="#b9dcff" d="M341.459,370.258c1.303,8.255-9.66,12.324-14.175,5.292c-16.164-25.173,0.285-58.948,30.271-61.44	c9.236-0.767,11.939,10.692,4.808,14.451C347.174,336.566,338.764,353.184,341.459,370.258z"></path><circle cx="239.968" cy="350.968" r="24" fill="#b9dcff"></circle><path fill="#d1e7ff" d="M221.117,365.819c-11.976-15.218-1.866-37.233,16.828-38.768c7.644-0.628,10.84,8.591,5.347,12.897	c-6.322,4.956-9.849,12.957-9.262,20.96C234.544,367.91,225.458,371.335,221.117,365.819z"></path><circle cx="115.968" cy="353.968" r="24" fill="#b9dcff"></circle><path fill="#d1e7ff" d="M97.117,368.819c-11.976-15.218-1.866-37.233,16.828-38.768c7.644-0.628,10.84,8.591,5.347,12.897	c-6.322,4.956-9.849,12.957-9.262,20.96C110.544,370.91,101.458,374.335,97.117,368.819z"></path><circle cx="239.968" cy="239.968" r="24" fill="#b9dcff"></circle><path fill="#d1e7ff" d="M221.117,254.819c-11.976-15.218-1.866-37.233,16.828-38.768c7.644-0.628,10.84,8.592,5.347,12.897	c-6.322,4.956-9.849,12.957-9.262,20.96C234.544,256.91,225.458,260.335,221.117,254.819z"></path><circle cx="115.968" cy="239.968" r="24" fill="#b9dcff"></circle><path fill="#d1e7ff" d="M97.117,254.819c-11.976-15.218-1.866-37.233,16.828-38.768c7.644-0.628,10.84,8.592,5.347,12.897	c-6.322,4.956-9.849,12.957-9.262,20.96C110.544,256.91,101.458,260.335,97.117,254.819z"></path><circle cx="360.968" cy="239.968" r="24" fill="#b9dcff"></circle><path fill="#d1e7ff" d="M342.117,254.819c-11.976-15.218-1.866-37.233,16.828-38.768c7.644-0.628,10.84,8.592,5.347,12.897	c-6.322,4.956-9.849,12.957-9.262,20.96C355.544,256.91,346.458,260.335,342.117,254.819z"></path><circle cx="360.968" cy="128.968" r="24" fill="#b9dcff"></circle><path fill="#d1e7ff" d="M342.117,143.819c-11.976-15.218-1.866-37.233,16.828-38.768c7.644-0.628,10.84,8.592,5.347,12.897	c-6.322,4.956-9.849,12.957-9.262,20.96C355.544,145.91,346.458,149.335,342.117,143.819z"></path><circle cx="239.968" cy="128.968" r="24" fill="#b9dcff"></circle><path fill="#d1e7ff" d="M221.117,143.819c-11.976-15.218-1.866-37.233,16.828-38.768c7.644-0.628,10.84,8.592,5.347,12.897	c-6.322,4.956-9.849,12.957-9.262,20.96C234.544,145.91,225.458,149.335,221.117,143.819z"></path><circle cx="115.968" cy="128.968" r="40" fill="#a2d0ff"></circle><path fill="#b9dcff" d="M96.459,145.258c1.303,8.255-9.66,12.324-14.175,5.292c-16.164-25.173,0.285-58.948,30.271-61.44	c9.236-0.767,11.939,10.692,4.808,14.451C102.174,111.566,93.764,128.184,96.459,145.258z"></path><path fill="#2e58ff" d="M67.968,427.968c-16.542,0-30-13.458-30-30v-99.347c0-18.286-6.625-35.944-18.653-49.721 c-4.445-5.092-4.445-12.771,0-17.863c12.028-13.777,18.653-31.435,18.653-49.721V81.968c0-16.542,13.458-30,30-30 c4.418,0,8-3.582,8-8s-3.582-8-8-8c-25.364,0-46,20.636-46,46v99.347c0,14.416-5.223,28.337-14.706,39.199 c-9.683,11.09-9.683,27.818,0,38.908c9.483,10.862,14.706,24.783,14.706,39.199v99.347c0,25.364,20.636,46,46,46 c4.418,0,8-3.582,8-8S72.386,427.968,67.968,427.968z"></path><path fill="#2e58ff" d="M472.673,220.514c-9.483-10.862-14.706-24.783-14.706-39.199V81.968c0-25.364-20.636-46-46-46 c-4.418,0-8,3.582-8,8s3.582,8,8,8c16.542,0,30,13.458,30,30v99.347c0,18.286,6.625,35.944,18.653,49.721 c4.445,5.092,4.445,12.771,0,17.863c-12.028,13.777-18.653,31.435-18.653,49.721v99.347c0,16.542-13.458,30-30,30 c-4.418,0-8,3.582-8,8s3.582,8,8,8c25.364,0,46-20.636,46-46v-99.347c0-14.416,5.223-28.337,14.706-39.199 C482.357,248.332,482.357,231.604,472.673,220.514z"></path><path fill="#2e58ff" d="M155.51,118.916c-4.413,0.224-7.808,3.983-7.584,8.396c0.932,18.35-13.627,33.656-31.958,33.656 c-17.645,0-32-14.355-32-32c0-23.868,25.159-39.127,46.201-28.687c3.958,1.965,8.758,0.348,10.722-3.61 c1.964-3.958,0.348-8.758-3.61-10.722c-31.726-15.744-69.313,7.334-69.313,43.019c0,26.467,21.533,48,48,48 c27.506,0,49.334-22.972,47.938-50.468C163.681,122.087,159.931,118.702,155.51,118.916z"></path><path fill="#2e58ff" d="M403.859,332.401c-1.987-3.946-6.797-5.533-10.744-3.546c-3.946,1.987-5.534,6.797-3.546,10.744 c10.622,21.092-4.705,46.37-28.602,46.37c-17.645,0-32-14.355-32-32s14.355-32,32-32c4.418,0,8-3.582,8-8s-3.582-8-8-8 c-26.467,0-48,21.533-48,48s21.533,48,48,48C396.795,401.968,419.834,364.119,403.859,332.401z"></path><path fill="#2e58ff" d="M239.968,207.968c-17.645,0-32,14.355-32,32c0,4.418,3.582,8,8,8s8-3.582,8-8 c0-8.822,7.178-16,16-16s16,7.178,16,16s-7.178,16-16,16c-4.418,0-8,3.582-8,8s3.582,8,8,8c17.645,0,32-14.355,32-32 S257.613,207.968,239.968,207.968z"></path><path fill="#2e58ff" d="M115.968,207.968c-4.418,0-8,3.582-8,8s3.582,8,8,8c8.822,0,16,7.178,16,16s-7.178,16-16,16 s-16-7.178-16-16c0-4.418-3.582-8-8-8s-8,3.582-8,8c0,17.645,14.355,32,32,32s32-14.355,32-32S133.613,207.968,115.968,207.968z"></path><path fill="#2e58ff" d="M263.968,342.968c-4.418,0-8,3.582-8,8c0,8.822-7.178,16-16,16s-16-7.178-16-16s7.178-16,16-16 c4.418,0,8-3.582,8-8s-3.582-8-8-8c-17.645,0-32,14.355-32,32s14.355,32,32,32s32-14.355,32-32 C271.968,346.549,268.386,342.968,263.968,342.968z"></path><path fill="#2e58ff" d="M115.968,321.968c-17.645,0-32,14.355-32,32s14.355,32,32,32c4.418,0,8-3.582,8-8s-3.582-8-8-8 c-8.822,0-16-7.178-16-16s7.178-16,16-16s16,7.178,16,16c0,4.418,3.582,8,8,8s8-3.582,8-8 C147.968,336.323,133.613,321.968,115.968,321.968z"></path><path fill="#2e58ff" d="M239.968,96.968c-17.645,0-32,14.355-32,32s14.355,32,32,32c4.418,0,8-3.582,8-8s-3.582-8-8-8 c-8.822,0-16-7.178-16-16s7.178-16,16-16s16,7.178,16,16c0,4.418,3.582,8,8,8s8-3.582,8-8 C271.968,111.323,257.613,96.968,239.968,96.968z"></path><path fill="#2e58ff" d="M360.968,160.968c17.645,0,32-14.355,32-32s-14.355-32-32-32c-4.418,0-8,3.582-8,8s3.582,8,8,8 c8.822,0,16,7.178,16,16s-7.178,16-16,16s-16-7.178-16-16c0-4.418-3.582-8-8-8s-8,3.582-8,8 C328.968,146.613,343.323,160.968,360.968,160.968z"></path><path fill="#2e58ff" d="M360.968,271.968c17.645,0,32-14.355,32-32c0-4.418-3.582-8-8-8s-8,3.582-8,8 c0,8.822-7.178,16-16,16s-16-7.178-16-16s7.178-16,16-16c4.418,0,8-3.582,8-8s-3.582-8-8-8c-17.645,0-32,14.355-32,32 S343.323,271.968,360.968,271.968z"></path></svg>